<svg width="612" height="683" viewBox="0 0 612 683" fill="none" xmlns="http://www.w3.org/2000/svg">
<path d="M206.255 2.19136C196.509 6.86405 192.237 13.8063 192.237 24.8873C192.371 38.2379 202.383 47.8503 216.268 47.8503C228.818 47.8503 238.831 38.9054 240.032 26.4894C241.768 8.33262 222.543 -5.55197 206.255 2.19136Z" fill="black"/>
<path d="M422.133 13.5395C421.466 14.474 418.929 20.6153 416.526 27.2906L412.254 39.5731L400.372 44.9133C384.351 52.2561 384.351 53.9917 400.372 61.3345L412.254 66.8082L416.793 79.6248C420.398 89.6377 422 92.7083 424.136 92.9753C426.406 93.3758 427.474 91.5068 431.212 80.9598C433.615 74.151 436.018 68.0098 436.685 67.3422C437.22 66.6747 442.693 63.8711 448.835 61.201C458.046 57.0623 459.915 55.5937 459.915 53.0571C459.915 50.5205 458.046 49.1855 448.835 45.1803C442.693 42.3767 437.22 39.7066 436.685 39.039C436.151 38.3715 433.615 32.3638 431.345 25.555C427.073 13.5395 424.67 10.3353 422.133 13.5395Z" fill="black"/>
<path d="M49.9195 37.4366C49.3855 38.3712 46.1814 46.515 42.8437 55.5934L36.7025 72.0146L21.6163 78.8234C13.339 82.6951 5.99619 86.7002 5.32866 88.0353C3.19257 91.7734 7.59826 95.2446 21.3493 101.252C28.2916 104.323 34.9669 107.794 36.1685 108.996C37.37 110.197 40.9747 118.608 44.0453 127.553C49.519 143.307 51.2546 145.977 55.2598 144.508C56.1943 144.108 59.6655 136.498 62.7361 127.553C65.8067 118.608 69.4114 110.331 70.6129 109.129C71.8145 107.794 78.6233 104.323 85.6991 101.252C107.727 91.6399 107.727 88.9698 85.165 78.8234L70.0789 72.0146L63.9376 55.5934C56.8618 36.1016 56.5948 35.8346 53.3907 35.8346C52.0556 35.8346 50.4536 36.5021 49.9195 37.4366Z" fill="black"/>
<path d="M532.009 104.59C528.137 108.328 527.87 110.197 530.807 114.336C532.677 117.006 534.012 117.273 544.559 117.273C557.509 117.273 560.713 115.671 560.713 108.996C560.713 103.122 556.975 101.252 545.493 101.252C536.415 101.252 534.813 101.653 532.009 104.59Z" fill="black"/>
<path d="M487.285 113.936C478.206 117.274 475.269 119.944 475.269 124.616C475.269 128.221 479.141 131.959 482.879 131.959C486.617 131.959 500.635 126.619 503.706 124.216C508.512 120.077 504.908 110.465 498.499 110.732C497.164 110.732 492.091 112.2 487.285 113.936Z" fill="black"/>
<path d="M289.696 114.736C249.778 119.676 206.121 134.762 173.679 155.055C104.39 198.177 56.5949 271.605 44.8464 353.177C41.7758 374.672 42.0428 409.517 45.3804 432.747C48.3175 452.372 54.5923 475.869 61.6681 493.892C64.3382 500.835 65.8068 506.842 65.5398 509.513C65.1393 513.918 68.2099 519.125 71.2805 519.125C72.0815 519.125 76.0867 524.999 80.2254 532.209C103.322 572.127 140.036 608.841 180.355 632.204C188.498 636.877 193.572 640.749 193.572 642.084C193.572 646.756 200.914 650.228 205.32 647.424C206.388 646.756 211.728 648.225 219.338 651.296C267.133 670.52 324.14 675.327 376.875 664.513C419.597 655.701 461.784 636.343 491.957 611.778C498.098 606.838 499.567 606.304 508.111 605.637C530.406 604.035 546.427 587.079 546.961 564.517C547.095 554.771 547.362 554.237 554.704 543.156C571.393 517.923 587.68 478.272 593.955 447.699C602.099 407.247 601.031 363.19 590.751 322.738C581.005 284.422 562.448 247.441 536.948 215.934C518.524 193.104 488.486 167.204 462.986 152.385C453.374 146.778 452.84 146.244 454.175 143.307C455.91 139.301 454.976 136.765 450.704 133.961C447.633 131.959 446.965 131.959 440.958 134.629L434.416 137.432L427.073 134.095C414.256 128.487 389.825 121.278 371.134 117.807C356.449 115.003 348.171 114.202 326.41 113.935C311.724 113.668 295.169 113.935 289.696 114.736ZM349.373 141.705C349.64 142.105 347.37 148.246 344.3 155.456C331.349 186.162 323.072 217.002 323.072 235.292C323.072 247.975 324.674 253.182 333.085 267.467C345.768 289.228 352.71 308.053 354.98 327.811C357.116 344.633 362.723 353.044 375.807 359.052C383.817 362.79 397.435 362.523 403.309 358.518C411.186 353.311 412.521 348.505 413.722 321.937C415.191 290.296 415.859 288.694 430.01 282.286C443.361 276.145 452.172 274.009 457.379 275.744C459.515 276.412 463.787 280.417 467.258 284.823C477.672 298.173 489.02 301.644 506.108 296.705C514.519 294.168 528.671 287.092 537.616 280.684L544.024 276.145L546.961 281.885C548.563 284.956 549.898 289.762 550.032 292.432C550.032 295.904 550.833 297.906 552.835 299.375C554.571 300.576 557.241 305.916 559.644 313.126C569.657 343.165 574.196 379.745 571.66 410.585C570.725 420.598 569.924 428.875 569.657 429.142C569.524 429.409 563.916 428.074 557.375 426.339C550.699 424.603 540.82 422.2 535.346 420.998L525.333 418.862V405.912C525.333 395.499 524.666 391.761 522.396 386.554C517.723 376.541 507.977 364.659 503.705 363.858C501.703 363.457 497.297 362.122 493.959 360.921C489.42 359.185 485.014 358.785 476.337 359.185C459.915 359.986 448.033 365.994 433.748 380.546C424.136 390.693 423.335 391.093 420.398 389.491C418.662 388.556 398.503 376.808 375.673 363.457C351.642 349.306 331.483 338.358 327.878 337.424C306.117 331.95 281.819 349.706 278.348 373.871C277.28 381.214 280.217 392.695 284.489 398.169C286.091 400.171 303.313 415.391 322.939 431.946C342.43 448.5 358.585 462.519 358.852 463.053C359.252 463.987 326.276 502.17 324.407 502.837C323.74 503.104 315.462 501.102 305.85 498.565C285.691 493.091 284.222 492.958 277.013 496.296C267.133 500.835 261.66 508.979 261.66 519.258C261.66 526.601 262.995 528.871 275.277 541.287L285.958 552.234L286.492 563.315C286.759 569.457 286.892 576.265 287.026 578.268C287.026 583.475 289.028 586.812 292.9 587.747C294.769 588.147 299.308 590.55 303.18 592.954C309.455 596.825 311.324 597.226 320.669 597.359L331.216 597.626L343.498 609.508C353.111 618.854 356.849 621.791 360.721 622.458C370.467 624.194 381.548 618.72 387.288 609.375L389.691 605.503L390.492 609.375C390.893 611.511 392.762 617.252 394.498 622.191L397.568 631.136L393.43 632.471C385.286 635.008 367.663 639.147 357.116 640.882C341.095 643.419 296.104 643.018 280.35 640.215C265.131 637.411 242.835 631.67 241.233 630.068C240.566 629.401 240.432 626.196 240.966 622.859L241.901 616.851L245.639 618.987C249.244 620.99 249.644 620.99 256.987 616.451C266.866 610.576 271.005 606.705 271.005 603.234C271.005 599.762 266.466 595.223 262.995 595.223C260.191 595.223 248.042 602.299 244.037 606.438C241.901 608.44 241.767 608.307 240.966 603.634C236.026 572.794 225.213 559.711 198.511 552.635C171.143 545.292 167.672 540.352 166.337 506.575C165.802 491.222 165.936 488.819 168.339 484.28C173.813 473.466 192.904 461.985 238.964 441.825C251.113 436.485 263.796 430.077 267.267 427.674C288.227 412.454 279.549 385.619 248.977 370.934C230.553 361.989 224.812 361.054 190.234 360.787C158.193 360.52 149.515 359.319 133.494 353.444C118.809 347.971 100.652 336.756 86.2331 323.94L79.8249 318.065L85.8326 302.712C92.9084 284.556 98.1151 274.009 106.927 259.857C148.046 193.371 216.668 150.249 295.169 141.437C305.85 140.236 348.038 140.503 349.373 141.705ZM401.173 153.453C417.728 158.793 450.837 175.615 464.855 185.761C481.677 197.777 498.766 213.13 509.446 225.546C520.26 238.229 535.346 258.789 535.346 261.059C535.346 261.86 531.207 265.331 526.268 268.668C508.778 280.283 495.161 284.823 487.418 281.485C485.281 280.684 481.543 277.079 479.274 273.608C467.125 255.985 450.971 254.517 421.332 268.535C402.107 277.613 399.571 282.82 397.702 318.199C396.901 331.416 396.1 343.031 395.833 343.832C395.032 346.235 386.354 345.968 380.88 343.432C374.338 340.227 372.87 337.29 370.6 321.937C367.396 300.576 360.854 283.487 344.3 253.449L338.826 243.436L339.493 231.42C340.695 212.596 349.907 182.157 363.524 151.851L366.995 144.241L378.076 146.911C384.084 148.246 394.498 151.183 401.173 153.453ZM83.029 342.363C101.586 357.984 124.683 369.332 148.847 375.072C152.852 376.007 168.473 376.808 187.564 376.941C218.537 377.075 220.006 377.208 230.553 380.68C244.304 385.352 256.052 393.096 260.191 400.305C266.065 410.852 261.66 414.59 226.414 429.543C174.48 451.705 152.986 467.725 150.182 486.416C149.782 489.353 149.915 501.369 150.583 513.251C152.051 537.148 153.653 542.889 161.931 552.101C167.939 558.643 177.952 563.716 193.038 567.988C207.99 571.993 214.532 576.532 219.205 585.878C224.945 597.092 227.349 623.259 222.809 623.259C220.139 623.259 194.907 609.775 183.559 602.299C135.23 570.391 99.7172 524.332 82.228 470.662C68.8774 430.344 66.0738 389.09 73.4166 346.502C74.3511 341.562 75.5527 337.557 76.0867 337.557C76.6207 337.557 79.8249 339.693 83.029 342.363ZM369.132 391.093C395.566 406.713 419.196 420.197 421.599 421.265C429.076 424.336 433.081 421.933 446.965 406.446C464.321 386.821 476.07 381.614 488.486 388.022C495.561 391.627 498.365 396.3 498.365 404.711C498.365 415.792 494.493 422.333 480.876 434.482C464.455 449.035 461.918 452.105 461.918 457.445C461.918 460.783 468.994 474 491.423 512.45C524.132 568.789 523.598 567.187 514.519 575.197C505.441 583.208 506.375 584.009 466.591 536.614C444.562 510.18 429.476 493.358 427.073 492.424C425.07 491.489 421.599 491.222 419.463 491.623C413.989 492.958 354.98 544.625 352.71 550.232C351.242 554.103 351.509 556.24 355.514 570.792C358.051 579.87 359.653 587.213 359.386 587.213C358.985 587.213 354.312 582.941 348.972 577.867C338.692 567.855 334.954 566.653 326.276 569.991C321.337 571.86 316.931 570.525 314.261 566.519C312.392 563.582 312.392 562.648 314.127 556.507C315.195 552.768 315.863 548.363 315.462 546.761C315.062 545.159 310.523 539.418 305.182 534.078C299.976 528.871 296.238 524.465 296.772 524.465C297.439 524.465 304.782 526.334 313.193 528.604C323.072 531.14 329.881 532.342 332.418 531.808C335.355 531.14 342.297 524.198 360.053 504.039C373.137 489.22 385.82 474.801 388.223 471.997C393.163 465.99 393.83 460.382 390.092 454.775C388.89 452.773 371.268 437.286 351.108 420.197C330.949 403.242 312.392 387.488 310.122 385.219C305.049 380.546 304.381 374.805 308.12 369.999C310.389 367.062 317.198 362.923 319.734 362.923C320.536 362.923 342.831 375.606 369.132 391.093ZM553.369 442.226L565.385 445.296L565.118 449.836C564.183 465.456 535.48 530.473 531.207 526.201C530.54 525.533 521.595 510.581 511.315 493.091L492.624 461.05L501.836 452.372C506.909 447.566 512.517 441.558 514.519 438.888L518.124 433.948L529.739 436.485C536.147 437.954 546.828 440.49 553.369 442.226ZM448.434 557.041C463.253 574.663 475.269 589.349 475.269 589.749C475.269 590.951 456.845 603.634 446.164 609.909C434.816 616.317 417.194 624.594 414.657 624.594C411.987 624.594 407.581 613.113 406.113 602.299C403.977 587.346 405.846 576.666 414.39 553.169C416.793 546.761 417.861 541.153 417.861 535.012C417.861 526.601 418.529 523.931 420.665 524.732C421.199 524.999 433.748 539.551 448.434 557.041ZM395.966 556.507C393.296 563.849 390.759 573.328 390.359 577.333C389.825 581.339 389.024 584.943 388.49 585.21C387.956 585.477 385.953 580.004 384.084 572.794L380.48 559.844L390.225 550.899C395.432 546.093 400.105 542.221 400.372 542.488C400.505 542.755 398.636 549.03 395.966 556.507Z" fill="black"/>
<path d="M260.325 182.557C248.309 187.63 244.571 194.573 248.576 203.384C250.312 207.256 255.919 210.727 260.325 210.727C265.398 210.727 282.754 202.716 284.89 199.379C290.631 190.567 284.356 178.685 274.076 178.685C271.272 178.819 265.131 180.421 260.325 182.557Z" fill="black"/>
<path d="M193.973 222.209C182.491 231.421 165.269 248.51 154.054 261.86C145.377 272.14 144.175 274.276 144.175 278.949C144.175 286.158 146.044 289.362 151.785 291.632C159.128 294.703 163.934 292.433 172.879 281.352C182.358 269.604 196.91 254.918 208.258 245.573C213.064 241.567 217.603 237.162 218.538 235.56C222.009 229.552 219.606 221.141 213.464 217.937C206.789 214.599 202.25 215.534 193.973 222.209Z" fill="black"/>
<path d="M532.543 320.202C531.341 320.87 527.737 325.409 524.666 330.349C519.726 337.825 519.059 339.561 520.127 342.631C521.596 346.903 527.737 349.573 531.074 347.437C534.813 345.168 544.558 330.482 544.692 327.144C544.692 321.27 537.75 317.132 532.543 320.202Z" fill="black"/>
<path d="M388.49 206.722C386.22 208.991 385.82 211.127 385.82 222.475C385.82 236.76 386.888 239.431 392.762 240.766C395.299 241.433 397.034 240.899 399.037 238.897C401.573 236.36 401.841 234.491 401.841 222.208C401.841 209.258 401.573 208.057 398.903 206.188C394.898 203.384 391.694 203.518 388.49 206.722Z" fill="black"/>
<path d="M105.458 382.549C102.922 385.887 102.655 387.622 103.055 398.57C103.456 412.187 105.058 415.258 111.599 415.258C118.008 415.258 120.144 410.986 120.144 397.635C120.144 387.889 119.743 385.353 117.34 382.416C113.735 377.876 109.063 377.876 105.458 382.549Z" fill="black"/>
<path d="M154.721 406.847C151.784 409.25 151.517 410.318 151.517 423.001C151.517 435.684 151.784 436.752 154.721 439.156C158.86 442.493 160.996 442.36 164.868 438.354C167.939 435.417 168.206 434.082 168.206 423.001C168.206 411.92 167.939 410.585 164.868 407.648C160.996 403.643 158.86 403.51 154.721 406.847Z" fill="black"/>
<path d="M585.01 116.739C581.139 119.409 581.005 126.618 584.877 130.089C586.479 131.424 588.749 134.762 590.217 137.432C593.688 144.374 599.696 146.11 603.835 141.571C608.24 136.765 605.704 128.621 597.026 119.542C591.686 114.069 589.55 113.535 585.01 116.739Z" fill="black"/>
<path d="M598.361 169.074C596.759 170.676 595.291 175.482 594.223 181.89C592.754 190.969 592.754 192.571 594.623 195.508C597.293 199.38 603.301 199.78 606.505 196.309C608.775 193.772 611.445 182.691 611.445 175.883C611.445 171.343 607.306 166.671 603.435 166.671C601.966 166.671 599.696 167.739 598.361 169.074Z" fill="black"/>
<path d="M2.92583 221.808C-4.951 230.219 4.39439 242.101 15.3419 237.962C18.9465 236.494 21.3496 229.685 19.7475 225.146C17.3444 218.204 7.99905 216.334 2.92583 221.808Z" fill="black"/>
<path d="M583.008 224.345C581.94 226.081 579.67 230.754 578.068 234.892C574.464 243.704 575.131 248.777 580.071 251.046C585.812 253.583 589.149 250.913 593.822 239.565C597.694 230.353 597.961 228.885 596.492 225.68C594.089 220.607 585.812 219.806 583.008 224.345Z" fill="black"/>
<path d="M50.3204 541.421C49.1189 542.89 46.5823 547.963 44.7132 552.902C40.975 563.049 41.9096 567.855 47.6503 569.457C53.7916 570.926 56.7287 568.122 60.7339 557.041C64.205 547.696 64.3385 546.361 62.6029 543.29C60.0663 538.884 53.5246 537.95 50.3204 541.421Z" fill="black"/>
<path d="M34.0328 595.223C30.6951 598.962 28.8261 616.184 31.4962 620.323C34.1663 624.328 36.8364 625.262 40.8416 623.393C44.8467 621.658 46.0483 618.453 47.1163 606.838C47.9174 598.962 47.6503 597.493 45.3807 595.223C42.0431 591.886 37.1034 591.886 34.0328 595.223Z" fill="black"/>
<path d="M43.3781 647.557C36.1688 651.696 36.9699 656.636 46.4488 666.248C54.8596 674.525 59.2653 675.994 63.137 671.588C67.0086 667.316 65.8071 663.177 58.1973 655.167C50.4539 646.89 47.3833 645.288 43.3781 647.557Z" fill="black"/>
<path d="M154.054 653.031C150.316 654.633 146.311 656.769 144.976 657.837C142.039 660.374 142.306 666.382 145.51 669.319C147.913 671.588 148.981 671.588 153.921 670.387C171.01 665.714 176.483 660.507 171.677 653.298C168.873 649.159 163.533 649.026 154.054 653.031Z" fill="black"/>
<path d="M98.1155 666.916C91.5737 667.584 88.1025 670.521 88.1025 675.46C88.1025 681.869 92.7752 683.871 104.924 682.67C118.809 681.335 123.482 676.529 118.008 668.919C115.872 665.848 112.401 665.581 98.1155 666.916Z" fill="black"/>
</svg>
