<svg width="684" height="672" viewBox="0 0 684 672" fill="none" xmlns="http://www.w3.org/2000/svg">
<path d="M510.67 1.85584C497.588 6.39467 491.714 19.6107 496.253 33.6276C499.457 43.1058 512.539 50.5815 522.151 48.5791C547.782 43.1058 550.452 9.86554 525.889 1.45536C520.149 -0.547064 517.078 -0.547064 510.67 1.85584Z" fill="white"/>
<path d="M166.654 32.1599C158.912 40.4362 168.389 52.5836 179.335 48.4455C185.342 46.0427 185.743 33.6283 180.003 30.558C175.731 28.2887 169.591 29.0896 166.654 32.1599Z" fill="white"/>
<path d="M324.178 51.3822C289.737 56.5885 263.438 69.137 239.676 91.8312C216.448 113.991 200.429 143.761 196.023 172.729C193.62 188.481 194.021 187.947 181.472 191.685C151.169 200.363 123.402 219.586 103.778 245.35C94.5671 257.498 83.2201 280.993 78.9482 296.879C75.7444 309.027 75.3439 312.365 75.3439 334.258C75.3439 356.018 75.7444 359.488 78.9482 371.369C86.2905 398.736 100.307 422.231 121.266 442.122C155.441 474.561 201.096 488.445 248.887 480.969L254.227 480.168L259.433 501.927L264.773 523.821L265.441 583.226C266.108 641.697 266.108 642.765 269.178 649.306C273.05 657.716 278.924 663.857 287.467 668.396L294.142 672H339.53C382.916 672 385.186 671.867 391.059 669.197C398.402 665.726 405.877 658.651 409.882 650.908C412.952 645.435 412.952 644.233 413.753 584.561C414.421 529.961 415.489 512.741 418.292 510.071C418.559 509.804 424.166 509.003 430.574 508.335C487.042 502.728 538.571 471.891 570.076 425.168C591.702 392.862 601.447 362.425 602.782 323.578C604.251 276.321 591.302 236.139 562.734 198.894C544.311 174.998 513.741 151.503 486.775 140.557C478.098 137.086 477.564 136.552 471.957 126.807C448.062 85.9574 410.95 59.7924 366.363 52.5837C355.416 50.7147 332.589 50.1808 324.178 51.3822ZM371.035 81.1516C406.144 90.2292 435.113 113.457 451.399 146.03C453.935 151.103 457.139 156.309 458.474 157.644C459.943 158.846 465.816 161.649 471.69 163.918C561.399 198.36 602.382 305.557 558.462 391.527C534.166 439.185 487.576 472.826 434.979 480.568C417.892 482.971 387.989 481.503 371.97 477.364C346.872 470.823 326.715 460.811 307.091 444.925C294.943 435.18 293.074 435.047 280.392 441.454C248.086 458.008 211.242 460.277 178.936 447.595C122.201 425.301 90.2953 363.493 105.113 305.29C114.458 268.979 136.351 242.013 170.526 224.792C180.137 219.986 202.298 213.445 208.972 213.445C210.841 213.445 213.912 211.843 215.914 209.707C219.251 206.503 219.785 204.768 220.586 194.088C222.322 173.53 225.793 160.181 233.535 144.962C251.557 109.586 285.598 84.7559 324.846 78.6152C336.326 76.8797 359.154 78.0812 371.035 81.1516ZM296.812 471.357L302.686 475.762L302.819 494.585C302.819 517.146 304.555 524.221 312.164 532.898C326.848 549.452 350.877 549.452 365.562 532.898C370.902 526.758 374.906 516.879 374.906 509.537C374.906 506.466 375.44 505.799 377.309 506.199C378.511 506.6 381.848 507.267 384.785 507.801C389.858 508.602 389.858 508.736 388.923 513.542C388.389 516.211 387.588 545.714 387.054 578.954L386.253 639.561L383.05 642.097C380.78 643.966 377.843 644.634 371.436 644.634H362.892V611.527C362.892 580.022 362.758 578.287 360.222 575.483C357.018 572.012 353.948 571.745 349.809 574.682C346.872 576.685 346.872 577.085 346.872 610.726V644.634H323.244C300.817 644.634 299.482 644.5 296.545 641.697L293.475 638.893V584.027V529.16L286.8 500.593C283.195 484.84 280.392 471.758 280.526 471.624C280.926 471.224 289.87 467.219 290.538 467.085C290.805 467.085 293.608 469.088 296.812 471.357ZM342.2 496.454L348.608 499.124L347.94 505.799C347.139 513.542 343.936 517.813 338.863 517.813C332.856 517.813 330.319 513.542 329.652 502.194L329.251 492.049L332.589 492.983C334.457 493.384 338.729 494.986 342.2 496.454Z" fill="white"/>
<path d="M307.758 138.688C296.411 141.625 284.797 150.969 279.057 162.05C275.986 167.923 275.453 170.326 275.453 181.406C275.453 192.219 275.986 195.023 278.656 200.763C285.999 215.581 299.348 224.258 316.035 225.193C328.85 225.86 338.596 222.523 348.074 213.979C357.952 205.168 362.091 195.557 362.091 182.074C362.224 164.052 353.814 150.302 338.195 142.559C328.85 138.02 316.836 136.419 307.758 138.688ZM332.989 158.045C350.076 168.057 350.477 192.887 333.923 204.501C316.168 217.049 290.804 203.433 290.804 181.406C290.804 160.047 314.3 147.098 332.989 158.045Z" fill="white"/>
<path d="M448.195 228.797C415.889 239.21 405.877 280.193 430.173 302.62C440.585 312.231 445.925 314.234 460.343 314.234C475.161 314.234 482.636 311.43 491.714 302.219C500.925 293.142 503.729 285.666 503.729 270.848C503.729 259.768 503.328 257.365 500.124 251.491C495.852 243.215 486.241 234.137 478.231 230.666C470.221 227.062 456.071 226.261 448.195 228.797ZM467.551 244.283C488.911 249.622 495.318 277.122 478.632 291.807C465.149 303.554 445.124 299.95 436.314 284.198C427.77 268.712 436.047 249.355 453.401 244.149C458.474 242.547 461.01 242.547 467.551 244.283Z" fill="white"/>
<path d="M169.992 250.69C162.516 255.363 159.312 259.901 159.446 265.909C159.579 270.314 160.513 272.183 163.851 275.12C169.725 280.326 175.465 280.059 182.941 274.452C190.683 268.579 192.819 264.04 190.817 257.499C188.147 248.688 178.402 245.484 169.992 250.69Z" fill="white"/>
<path d="M143.96 279.791C140.756 281.527 138.086 284.731 134.482 291.406C128.608 302.219 122.734 319.306 121.666 328.25C120.999 333.857 121.399 335.058 125.004 339.063C128.341 342.801 129.943 343.602 134.482 343.602C142.225 343.602 145.962 339.33 149.433 326.915C151.035 321.442 154.907 311.296 158.244 304.622C163.851 293.141 164.118 291.94 162.649 287.534C159.979 279.391 151.569 275.92 143.96 279.791Z" fill="white"/>
<path d="M331.254 313.566C316.97 316.503 306.023 324.779 299.215 337.862C296.011 344.003 295.61 346.539 295.477 356.952C295.477 368.165 295.877 369.5 300.016 377.376C312.03 399.67 338.329 407.413 360.489 395.398C383.45 382.85 389.858 352.279 374.105 330.52C364.761 317.571 346.605 310.495 331.254 313.566ZM354.615 334.124C361.29 338.663 366.897 349.075 366.897 356.952C366.897 364.828 361.156 375.641 354.615 380.046C348.474 384.051 336.593 385.52 329.118 383.117C320.173 380.046 310.829 366.83 310.829 356.952C310.829 347.74 318.305 336.26 327.249 331.721C334.19 328.117 347.807 329.318 354.615 334.124Z" fill="white"/>
<path d="M450.464 352.547C447.127 357.219 447.528 372.838 450.998 376.309C454.336 379.646 459.275 379.78 462.079 376.576C465.149 373.105 465.282 354.683 462.212 351.746C459.142 348.542 452.867 349.076 450.464 352.547Z" fill="white"/>
<path d="M491.314 379.779C488.644 381.648 488.377 382.983 488.377 392.995C488.377 403.408 488.644 404.476 491.581 406.345C495.452 408.881 501.193 407.813 503.062 404.342C503.862 403.007 504.396 397.667 504.396 392.461C504.396 384.718 503.862 382.449 501.727 380.313C498.523 377.109 495.319 376.976 491.314 379.779Z" fill="white"/>
<path d="M413.62 409.683C411.484 411.819 410.95 414.089 410.95 422.098C410.95 433.045 412.952 436.382 419.36 436.382C425.367 436.382 426.969 433.312 426.969 421.698C426.969 412.353 426.702 410.885 424.032 409.149C420.027 406.346 416.823 406.479 413.62 409.683Z" fill="white"/>
<path d="M45.5743 68.2027C44.9069 69.1371 41.703 77.2803 38.4991 86.2245C35.4287 95.1687 32.2249 103.045 31.2904 103.712C30.4894 104.38 23.2807 107.717 15.4045 111.322C7.3948 114.926 0.58656 118.397 0.186075 118.931C-0.0809143 119.598 -0.0809143 121.467 0.31957 123.203C0.85355 125.472 4.45791 127.608 15.805 132.547C23.8147 136.152 31.0234 139.756 31.8244 140.69C32.4918 141.491 35.8292 149.635 39.0331 158.712C45.5743 176.734 47.9773 180.071 51.5816 175.666C52.3826 174.732 55.72 166.455 58.9238 157.377C62.1277 148.3 65.5986 140.29 66.6665 139.756C67.7345 139.222 74.9432 135.751 82.9529 132.013C95.3679 126.273 97.2369 125.072 97.2369 122.268C97.2369 117.996 96.4359 117.462 79.6155 109.987C71.7393 106.516 64.9311 102.644 64.5306 101.443C63.9966 100.241 61.1932 92.7657 58.3899 84.7561C55.453 76.6129 52.3826 69.2706 51.5816 68.3362C49.8462 66.2003 47.1763 66.0668 45.5743 68.2027Z" fill="white"/>
<path d="M643.365 101.576C642.697 103.312 640.561 109.186 638.559 114.926L634.954 125.072L623.073 130.545C607.187 137.754 607.187 139.622 622.272 146.698C628.28 149.501 634.02 152.571 634.821 153.506C635.488 154.574 637.758 160.314 639.76 166.321C643.365 177.001 645.901 181.006 648.437 179.537C649.105 179.137 651.641 172.996 654.044 165.921L658.583 152.972L670.998 147.232C687.151 139.622 687.151 138.421 670.998 130.545L658.717 124.671L654.178 111.589C650.573 101.443 648.971 98.6395 646.969 98.6395C645.634 98.6395 644.032 99.9745 643.365 101.576Z" fill="white"/>
</svg>
