<svg width="617" height="684" viewBox="0 0 617 684" fill="none" xmlns="http://www.w3.org/2000/svg">
<path d="M208.017 1.60193C206.149 2.53639 203.612 5.47327 202.411 8.00966C200.275 12.2815 200.008 18.1552 200.008 72.354V131.892L191.598 137.9C168.637 154.319 152.35 179.416 147.144 206.516C144.341 221.334 144.341 462.158 147.144 476.975C152.35 504.075 168.637 529.172 191.598 545.592L200.008 551.599V611.137C200.008 665.336 200.275 671.21 202.411 675.482C206.683 684.159 217.496 685.761 224.17 678.685L227.374 675.215L227.775 618.746L228.175 562.278L233.782 563.747C240.19 565.482 428.55 566.016 442.701 564.414L450.977 563.346V618.88V674.414L455.516 678.952C458.453 681.889 461.39 683.491 463.526 683.491C468.198 683.491 474.606 680.154 476.341 676.95C477.142 675.215 477.676 652.654 477.676 613.807L477.81 553.334L486.487 547.994C502.907 537.982 518.792 519.694 527.203 501.138C534.678 484.852 536.414 473.638 536.414 443.068V415.435L552.833 414.901C563.513 414.5 570.855 413.566 573.926 412.231C581.001 409.16 589.144 401.284 592.748 394.075C595.819 387.801 595.819 387.401 595.819 341.746C595.819 296.091 595.819 295.69 592.748 289.416C589.144 282.207 581.001 274.331 573.926 271.261C570.855 269.926 563.513 268.991 552.833 268.591L536.414 268.057V240.423C536.414 217.729 535.88 211.055 533.744 201.977C528.938 181.819 519.326 164.732 504.508 149.914C497.166 142.439 484.885 133.361 479.812 131.358C477.943 130.691 477.676 123.883 477.676 69.8176C477.676 30.8372 477.142 8.27665 476.341 6.54122C474.606 3.33736 468.198 0 463.526 0C461.39 0 458.453 1.60193 455.516 4.53881L450.977 9.07762V64.6113V120.145L442.701 119.077C428.55 117.475 240.19 118.009 233.782 119.744L228.175 121.213L227.775 64.6113L227.374 8.00966L223.903 4.6723C219.898 0.667472 212.69 -0.800966 208.017 1.60193ZM446.705 147.511C476.341 154.586 499.302 177.414 507.178 207.984C509.581 217.596 509.715 223.87 509.715 341.746C509.715 460.556 509.581 465.895 507.045 475.774C501.171 498.868 486.353 517.825 466.062 528.371C447.239 538.116 450.043 537.982 341.245 537.982C275.032 537.982 241.925 537.448 237.119 536.514C220.566 533.043 202.144 521.696 190.53 507.679C184.389 500.337 176.913 485.653 174.377 475.907C171.841 466.162 171.841 217.329 174.377 207.584C181.986 178.482 206.282 154.586 235.384 147.378C240.323 146.176 267.289 145.776 340.177 145.642C422.676 145.509 439.63 145.909 446.705 147.511ZM566.049 298.627C568.319 300.629 568.452 303.7 568.452 341.479C568.452 377.522 568.185 382.595 566.183 384.731C564.314 386.733 561.911 387.134 550.164 387.134H536.414V341.746V296.358H550.03C560.71 296.358 564.047 296.758 566.049 298.627Z" fill="white"/>
<path d="M234.449 174.744C214.025 181.285 199.207 197.705 194.802 218.663C192.799 228.542 192.799 454.948 194.802 464.827C198.139 480.446 206.95 493.395 220.299 501.938C235.25 511.684 232.581 511.417 344.983 511.016L445.104 510.616L455.249 505.543C471.268 497.667 481.948 484.718 486.353 467.63C489.29 456.15 489.29 227.34 486.353 215.86C481.948 198.773 471.268 185.824 455.249 177.948L445.104 172.875L343.648 172.608C248.066 172.341 241.658 172.474 234.449 174.744ZM447.106 191.697C456.05 195.836 463.659 203.311 467.931 211.989L471.669 219.598V341.745V463.893L467.931 471.502C463.659 480.179 456.05 487.655 447.106 491.793C441.099 494.596 439.897 494.596 343.648 494.997C234.983 495.397 238.321 495.664 226.039 486.186C221.234 482.582 218.03 478.577 214.692 472.036L210.02 462.825V341.745V220.666L214.692 211.455C218.03 204.913 221.234 200.909 226.039 197.304C238.187 188.093 233.915 188.36 342.847 188.627C440.031 188.894 440.965 188.894 447.106 191.697Z" fill="white"/>
<path d="M239.923 214.792C233.515 221.333 234.85 231.479 242.726 235.617C250.869 239.889 266.088 237.219 269.425 231.078C272.095 225.872 271.027 218.93 266.889 214.792C263.284 211.188 262.216 210.921 253.406 210.921C244.595 210.921 243.527 211.188 239.923 214.792Z" fill="white"/>
<path d="M289.316 214.792C282.775 221.333 284.643 231.879 293.054 236.151C297.192 238.287 331.9 238.02 336.039 235.884C337.908 235.083 340.444 232.279 341.913 230.01C344.983 224.67 344.048 219.197 339.243 214.391C335.905 210.92 335.638 210.92 314.546 210.92H293.187L289.316 214.792Z" fill="white"/>
<path d="M417.07 223.202C413.866 227.741 414.133 247.098 417.337 250.035C420.541 252.972 426.014 252.838 428.684 249.901C432.155 246.163 431.888 225.605 428.55 222.535C425.079 219.331 419.473 219.732 417.07 223.202Z" fill="white"/>
<path d="M319.619 259.78C285.311 267.389 258.078 292.085 250.202 322.522C247.532 333.068 247.532 350.422 250.202 360.968C253.006 371.915 260.214 385.131 267.957 393.941L274.365 401.15L272.629 415.701C269.692 439.463 270.894 440.131 300.396 431.32C321.622 424.912 322.423 424.779 335.639 425.446C365.541 427.048 392.774 416.369 411.997 395.944C427.082 379.791 433.757 362.971 433.757 341.612C433.757 318.517 425.08 299.427 406.791 282.474C396.645 273.129 381.16 264.585 367.544 260.981C355.93 257.777 331.1 257.243 319.619 259.78ZM367.544 278.335C388.235 285.144 403.32 298.093 412.131 316.381C416.803 326.126 416.937 326.794 416.937 341.879C416.937 356.964 416.803 357.364 411.864 367.376C402.786 385.798 388.369 398.08 367.544 405.289C357.799 408.759 354.995 409.026 336.173 409.293C317.083 409.427 314.413 409.694 302.265 413.565L289.182 417.703L290.117 406.356L291.051 395.009L284.243 387.934C275.299 378.323 269.826 369.512 266.755 359.233C257.544 329.731 272.629 298.093 302.932 283.141C317.75 275.799 328.296 273.53 344.182 274.197C353.26 274.598 359.801 275.665 367.544 278.335Z" fill="white"/>
<path d="M296.124 337.741C289.983 343.881 294.655 354.294 303.466 354.294C307.07 354.294 309.206 353.493 310.942 351.224C316.549 344.282 312.277 335.071 303.466 335.071C300.529 335.071 297.726 336.139 296.124 337.741Z" fill="white"/>
<path d="M332.835 338.275C326.026 348.554 338.708 360.301 347.385 351.624C353.793 345.217 349.922 336.005 340.444 335.338C335.905 334.937 334.703 335.471 332.835 338.275Z" fill="white"/>
<path d="M371.014 338.541C367.543 342.946 367.41 347.218 370.614 350.956C376.487 358.165 388.235 354.16 388.235 344.949C388.235 335.471 376.754 331.199 371.014 338.541Z" fill="white"/>
<path d="M432.956 415.835C430.019 418.639 429.619 420.24 429.619 429.051C429.619 437.728 430.019 439.597 432.823 442.801C435.626 446.005 436.427 446.272 439.764 445.204C445.371 443.202 447.106 438.663 446.706 427.316C446.305 418.906 445.771 417.17 443.102 415.034C438.963 411.697 436.827 411.83 432.956 415.835Z" fill="white"/>
<path d="M391.572 439.73C389.436 441.332 388.902 443.602 388.502 452.145C387.968 465.762 389.703 469.232 396.912 469.232C404.121 469.232 405.856 465.762 405.322 452.145C404.921 440.932 403.053 437.861 396.912 437.861C395.31 437.861 392.907 438.662 391.572 439.73Z" fill="white"/>
<path d="M45.288 28.968C44.6205 30.3029 41.9506 37.6451 39.1472 45.3878C36.4773 53.1305 33.5405 60.6062 32.606 62.2081C31.538 63.6765 24.0624 67.8149 15.9192 71.5527C4.70568 76.492 0.83434 78.7614 0.300362 81.0308C-0.100121 82.6327 -0.100121 84.5017 0.300362 85.1691C0.700845 85.8366 7.50906 89.3075 15.3852 92.7783C23.2614 96.3827 30.4701 99.8535 31.4046 100.387C32.2055 101.055 35.1424 107.997 37.9458 115.873C44.754 135.497 46.0889 137.766 49.4263 137.232C51.8292 136.965 53.4311 133.628 58.7709 118.676L65.3121 100.521L81.198 93.5793C89.8751 89.7079 97.3508 85.7031 97.7513 84.5017C99.3532 80.6303 95.7488 77.6934 81.5984 71.4192C73.7223 67.8149 66.6471 64.4775 66.1131 63.9435C65.4456 63.543 62.2418 55.6669 59.0379 46.7227C55.834 37.6451 52.4967 29.502 51.6957 28.434C49.5598 26.0311 46.7564 26.2981 45.288 28.968Z" fill="white"/>
<path d="M582.336 109.332C570.054 114.939 564.848 130.424 570.989 142.572C579.799 159.793 605.163 159.927 613.84 142.839C617.178 136.165 617.311 126.953 613.974 120.412C610.904 114.272 607.833 111.468 601.426 108.798C595.018 106.128 589.011 106.262 582.336 109.332Z" fill="white"/>
<path d="M91.3431 216.394C84.001 222.134 88.4063 234.148 97.8844 234.148C104.025 234.148 107.896 230.01 107.896 223.602C107.896 218.53 102.957 213.59 97.8844 213.59C96.2824 213.59 93.3456 214.792 91.3431 216.394Z" fill="white"/>
<path d="M84.1346 505.543C83.4671 506.878 81.1977 512.886 79.1953 518.893L75.4575 529.706L63.8435 535.179C57.3022 538.116 51.6955 541.053 51.295 541.72C49.5596 544.524 52.363 546.927 63.5765 552.133L75.324 557.473L79.9963 570.822C86.404 588.71 88.1394 588.71 94.5472 570.822L99.353 557.606L111.768 551.866C121.246 547.327 124.049 545.458 123.649 543.723C123.382 542.254 118.576 539.05 111.234 535.313L99.2195 529.305L94.5472 516.223C91.0763 506.745 89.3409 503.274 87.6055 503.274C86.2705 503.274 84.8021 504.342 84.1346 505.543Z" fill="white"/>
</svg>
