<svg width="683" height="681" viewBox="0 0 683 681" fill="none" xmlns="http://www.w3.org/2000/svg">
<path d="M592.146 3.6924C591.479 5.69401 588.944 12.4995 586.542 18.7712L582.405 29.9803L570.129 35.3179C552.247 43.191 552.247 45.326 570.129 53.0656L582.405 58.4033L587.743 72.9483C595.082 92.5642 596.417 92.5642 603.756 73.0818L609.093 58.5367L621.37 53.0656C639.251 45.1926 639.251 42.9241 621.37 35.1845L609.093 29.8469L603.756 15.3018C597.884 -0.44428 594.815 -3.51343 592.146 3.6924Z" fill="black"/>
<path d="M213.173 48.1284C200.496 52.532 189.287 60.0047 177.411 72.0144C160.998 88.6945 153.125 103.24 148.588 125.524C145.519 141.003 146.586 161.02 151.257 175.565C153.125 181.436 179.012 235.48 208.77 295.528C238.527 355.71 262.813 405.617 262.813 406.418C262.813 407.485 258.944 406.952 251.204 404.683C235.058 400.28 205.434 399.079 189.287 402.415C137.779 412.823 98.414 446.851 82.0007 495.29C64.5199 546.665 79.3319 605.912 118.83 642.475C170.339 690.247 248.669 692.783 303.246 648.614C318.458 636.337 330.602 620.724 341.01 600.308C345.814 590.834 349.95 583.227 350.217 583.227C350.484 583.227 354.621 590.834 359.425 600.308C369.833 620.724 381.976 636.337 397.189 648.614C468.58 706.394 574.799 681.84 613.096 598.707C627.241 568.149 629.643 531.052 619.502 498.492C605.09 452.188 568.527 417.36 521.022 404.416C500.205 398.678 466.978 399.346 445.761 405.751C441.358 407.085 437.621 407.752 437.621 407.219C437.621 406.685 462.174 356.644 492.332 295.929C522.356 235.346 548.111 182.103 549.578 177.833C565.591 130.462 543.574 76.8183 498.737 53.4661C485.794 46.6606 476.586 44.7924 465.377 46.794C454.835 48.7956 448.297 52.1317 440.023 59.8713C433.885 65.6092 430.015 72.8151 392.118 149.277L350.885 232.544L314.455 159.418C294.439 119.119 275.624 81.4887 272.955 75.7508C260.812 51.1976 236.792 39.9885 213.173 48.1284ZM237.593 76.2845C242.931 78.9533 243.731 80.4212 299.643 193.179C331.669 257.764 355.822 307.938 355.155 308.606C353.954 309.807 269.085 353.709 268.685 353.308C266.95 351.44 180.347 173.563 178.479 168.225C172.474 151.145 174.209 129.394 183.016 110.979C188.62 98.9695 204.5 83.09 216.242 77.4855C226.251 72.8151 230.387 72.5482 237.593 76.2845ZM485.393 78.0193C501.006 85.8923 515.951 102.973 521.689 119.119C526.493 132.73 527.561 144.74 525.159 158.217C523.291 169.426 520.755 174.764 472.983 271.509C445.361 327.421 422.409 373.458 421.875 373.858C421.341 374.259 408.665 349.839 393.586 319.414L366.23 264.303L411.6 173.43C445.895 104.841 458.038 81.6222 461.374 78.6865C467.112 73.6157 476.186 73.3488 485.393 78.0193ZM394.787 385.201C408.531 412.957 420.808 436.576 421.875 437.51C426.145 440.979 432.684 440.846 441.625 437.109C489.13 417.76 543.84 431.772 574.132 471.404C582.538 482.346 590.945 499.426 594.548 512.504C598.284 526.248 598.018 555.205 593.881 569.483C568.794 657.554 456.036 681.173 398.79 610.182C391.05 600.575 384.512 587.898 336.473 490.753C307.116 430.971 282.83 381.331 282.563 380.397C282.296 379.329 298.843 369.988 325.531 356.244C349.283 343.967 369.033 333.959 369.166 334.226C369.433 334.493 380.909 357.445 394.787 385.201ZM237.193 430.571C242.797 431.638 251.604 434.441 256.809 436.576C266.683 440.712 272.021 441.379 276.291 438.978C278.826 437.777 280.961 441.513 306.716 494.089L334.471 550.534L321.394 576.555C306.582 605.779 298.309 617.121 283.363 628.33C271.621 637.138 262.013 642.342 249.469 646.345C194.225 664.36 134.043 637.004 111.625 583.895C104.953 568.149 103.485 559.875 103.485 539.859C103.485 518.375 105.219 510.369 113.493 492.487C128.972 459.527 160.864 435.508 197.427 429.37C205.834 427.902 227.718 428.569 237.193 430.571Z" fill="black"/>
<path d="M218.378 157.684C215.442 159.419 212.106 165.824 212.106 169.96C212.106 171.695 214.775 178.634 218.111 185.44C223.315 195.981 224.783 197.983 228.92 199.718C231.722 200.919 235.325 201.453 237.593 200.919C242.931 199.718 248.135 193.179 248.135 187.575C248.135 182.237 238.661 161.954 234.658 158.484C231.455 155.949 222.247 155.415 218.378 157.684Z" fill="black"/>
<path d="M246.667 223.07C240.529 229.609 241.33 233.079 255.341 262.302C267.217 286.722 268.285 288.59 272.822 290.458C279.227 293.127 284.565 291.926 288.835 286.722C294.306 280.183 293.372 276.18 280.428 249.225C267.484 222.403 264.682 218.934 255.875 218.934C251.605 218.934 249.737 219.734 246.667 223.07Z" fill="black"/>
<path d="M339.142 376.794C327.933 380.931 318.859 393.741 318.859 405.751C318.859 417.36 327.399 430.037 338.475 434.707C343.679 436.842 354.621 436.976 359.825 434.974C381.443 426.968 387.314 399.212 370.767 383.466C362.361 375.593 349.951 372.924 339.142 376.794ZM359.292 395.876C367.698 404.283 364.095 415.625 351.819 419.629C348.483 420.696 341.01 417.36 338.341 413.624C334.738 408.553 335.539 400.813 340.076 396.276C345.414 390.939 354.221 390.805 359.292 395.876Z" fill="black"/>
<path d="M471.382 479.678C453.234 484.215 438.555 496.224 430.149 513.305C425.345 522.779 424.945 524.647 424.544 537.057C424.144 548.266 424.544 552.003 426.946 559.208C432.684 576.556 442.959 588.165 460.04 596.305C477.654 604.712 500.739 603.644 517.553 593.503C532.498 584.562 544.107 567.215 547.177 549.601C551.98 520.644 533.032 489.552 505.143 481.012C495.668 478.21 479.789 477.543 471.382 479.678ZM495.802 507.834C509.813 511.97 519.421 524.914 519.287 539.86C519.287 549.334 517.019 555.472 510.881 562.545C498.204 576.956 474.318 577.49 461.374 563.745C447.496 548.8 449.765 523.847 466.178 512.771C476.72 505.699 484.459 504.364 495.802 507.834Z" fill="black"/>
<path d="M200.764 479.677C167.537 488.083 146.987 519.709 153.792 552.002C157.662 569.883 167.537 584.028 182.749 593.235C199.83 603.643 222.648 604.844 240.396 596.304C257.476 588.164 267.751 576.555 273.489 559.208C275.891 552.002 276.291 548.265 275.891 537.056C275.491 524.646 275.09 522.778 270.287 513.304C257.343 486.883 228.253 472.871 200.764 479.677ZM230.921 510.635C242.264 516.907 248.135 526.915 248.135 540.126C248.002 564.946 222.915 581.225 200.764 570.684C187.82 564.545 181.014 553.87 181.014 539.859C181.148 513.971 208.103 498.225 230.921 510.635Z" fill="black"/>
<path d="M80.6667 80.8216C73.8612 87.4936 78.6651 98.8361 88.4063 98.8361C95.879 98.8361 100.95 91.3634 98.5479 84.1576C95.879 76.8183 86.4047 74.9502 80.6667 80.8216Z" fill="black"/>
<path d="M646.457 159.418C627.909 167.558 625.907 193.045 642.854 204.922C647.525 208.124 649.926 208.792 656.198 208.925C679.684 209.058 691.427 183.438 676.081 165.957C673.679 163.288 669.943 160.352 667.541 159.418C662.07 157.016 651.661 157.15 646.457 159.418Z" fill="black"/>
<path d="M48.2405 223.871C47.7067 225.205 44.6376 233.745 41.3015 242.953L35.2967 259.633L25.9558 264.303C20.8851 266.839 13.4124 270.442 9.40912 272.31C1.00233 276.18 -1.39961 279.115 0.735444 282.585C1.53609 283.919 9.54256 288.323 18.3497 292.326L34.6295 299.532L38.3658 309.673C40.5009 315.144 43.57 323.818 45.3048 328.755C50.6424 345.169 54.3788 343.034 63.3193 318.347L69.9914 299.932L86.5381 292.459C103.885 284.586 107.889 280.984 103.885 276.98C102.818 275.913 94.8114 271.776 86.0043 267.773L69.9914 260.3L66.255 250.025C56.3804 222.536 55.9801 221.602 52.5106 221.602C50.6424 221.602 48.7742 222.67 48.2405 223.871Z" fill="black"/>
</svg>
