<svg width="366" height="339" viewBox="0 0 366 339" fill="none" xmlns="http://www.w3.org/2000/svg">
<path d="M54.8999 100.65L82.3499 73.2002L164.7 155.55L82.3499 237.9L54.8999 210.45L109.8 155.55L54.8999 100.65Z" fill="#A34843"/>
<path fill-rule="evenodd" clip-rule="evenodd" d="M0 155.55L45.75 201.3L91.5 155.55L45.75 109.8L0 155.55ZM45.75 164.7L36.6 155.55L45.75 146.4L54.9 155.55L45.75 164.7Z" fill="#AB9D60"/>
<path fill-rule="evenodd" clip-rule="evenodd" d="M100.65 54.9L155.55 0L183 18.3L210.45 0L265.35 54.9L183 137.25L100.65 54.9ZM183 100.65L137.25 54.9L155.55 36.6L183 54.9L210.45 36.6L228.75 54.9L183 100.65Z" fill="#AB9D60"/>
<path fill-rule="evenodd" clip-rule="evenodd" d="M201.3 155.55L283.65 237.9L301.95 219.6L288.225 205.875L338.55 155.55L288.225 105.225L301.95 91.5002L283.65 73.2002L201.3 155.55ZM265.35 173.85L247.05 155.55L265.35 137.25L283.65 155.55L265.35 173.85Z" fill="#A34843"/>
<path fill-rule="evenodd" clip-rule="evenodd" d="M183 173.85L100.65 256.2L183 338.55L265.35 256.2L183 173.85ZM183 283.65L155.55 256.2L183 228.75L210.45 256.2L183 283.65Z" fill="#A34843"/>
</svg>
